<?xml version="1.0" encoding="iso-8859-1"?>
<!-- Generator: Adobe Illustrator 18.1.1, SVG Export Plug-In . SVG Version: 6.00 Build 0)  -->
<svg version="1.1" id="Capa_1" xmlns="http://www.w3.org/2000/svg" xmlns:xlink="http://www.w3.org/1999/xlink" x="0px" y="0px"
	 viewBox="0 0 286.374 286.374" style="enable-background:new 0 0 286.374 286.374;" xml:space="preserve">
<g id="Folder">
	<g>
		<path style="fill-rule:evenodd;clip-rule:evenodd;" d="M257.735,35.797H157.502c-9.613,0-18.091,4.79-23.282,12.069l-0.026-0.026
			c0,0-0.122,0.192-0.148,0.244c-0.201,0.271-0.367,0.559-0.56,0.831c-2.376,3.627-10.618,16.037-14.464,19.996
			c-7.296,7.507-10.653,11.632-38.479,11.632H26.847C11.029,80.543,0,91.572,0,107.39v114.548c0,15.819,12.821,28.639,28.639,28.639
			h229.096c15.818,0,28.639-12.82,28.639-28.639V64.436C286.374,48.618,273.554,35.797,257.735,35.797z M250.682,90.803
			c0,11.378-7.777,15.893-11.824,17.479c-0.908-0.088-33.026,8.058-33.026,8.058v85.017c0,12.358-14.018,22.373-31.322,22.373
			c-17.305,0-31.323-10.016-31.323-22.373c0-12.358,14.018-22.373,31.323-22.373c4.824,0,9.342,0.843,13.423,2.233V98.442
			c0-6.45-2.333-22.364,17.899-26.848l44.85-8.835V90.803z"/>
	</g>
</g>
<g>
</g>
<g>
</g>
<g>
</g>
<g>
</g>
<g>
</g>
<g>
</g>
<g>
</g>
<g>
</g>
<g>
</g>
<g>
</g>
<g>
</g>
<g>
</g>
<g>
</g>
<g>
</g>
<g>
</g>
</svg>
